<mxfile host="app.diagrams.net" modified="2021-02-25T01:02:15.326Z" agent="5.0 (Windows NT 10.0; Win64; x64) AppleWebKit/537.36 (KHTML, like Gecko) Chrome/88.0.4324.182 Safari/537.36" etag="z74EZf9_mjmAyqYzuXli" version="14.4.3" type="github">
  <diagram id="kdde09D2nnx4coVuQpx-" name="第 1 页">
    <mxGraphModel dx="1422" dy="794" grid="1" gridSize="10" guides="1" tooltips="1" connect="1" arrows="1" fold="1" page="1" pageScale="1" pageWidth="827" pageHeight="1169" math="0" shadow="0">
      <root>
        <mxCell id="0" />
        <mxCell id="1" parent="0" />
        <mxCell id="gJM25PYip7lrtwRQAck6-2" value="" style="whiteSpace=wrap;html=1;aspect=fixed;" parent="1" vertex="1">
          <mxGeometry x="170" y="50" width="600" height="600" as="geometry" />
        </mxCell>
        <mxCell id="gJM25PYip7lrtwRQAck6-11" value="" style="rounded=1;whiteSpace=wrap;html=1;" parent="1" vertex="1">
          <mxGeometry x="180" y="450" width="480" height="180" as="geometry" />
        </mxCell>
        <mxCell id="HxBF0iYT7sKtN1toAZas-4" value="开放平台服务" style="shape=ext;double=1;rounded=1;whiteSpace=wrap;html=1;" parent="1" vertex="1">
          <mxGeometry x="440" y="220" width="120" height="180" as="geometry" />
        </mxCell>
        <mxCell id="geDU7SRH2CKQkBY8LNWq-4" value="" style="edgeStyle=orthogonalEdgeStyle;rounded=0;orthogonalLoop=1;jettySize=auto;html=1;" edge="1" parent="1" source="HxBF0iYT7sKtN1toAZas-5">
          <mxGeometry relative="1" as="geometry">
            <mxPoint x="90" y="325" as="targetPoint" />
          </mxGeometry>
        </mxCell>
        <mxCell id="HxBF0iYT7sKtN1toAZas-5" value="iTop工具" style="shape=ext;double=1;rounded=1;whiteSpace=wrap;html=1;" parent="1" vertex="1">
          <mxGeometry x="180" y="230" width="130" height="180" as="geometry" />
        </mxCell>
        <mxCell id="HxBF0iYT7sKtN1toAZas-6" value="k8s cluster" style="shape=ext;double=1;rounded=1;whiteSpace=wrap;html=1;" parent="1" vertex="1">
          <mxGeometry x="200" y="580" width="440" height="40" as="geometry" />
        </mxCell>
        <mxCell id="HxBF0iYT7sKtN1toAZas-7" value="认证授权中心" style="shape=ext;double=1;rounded=1;whiteSpace=wrap;html=1;" parent="1" vertex="1">
          <mxGeometry x="580" y="130" width="80" height="310" as="geometry" />
        </mxCell>
        <mxCell id="gJM25PYip7lrtwRQAck6-3" value="aiOS" style="text;html=1;strokeColor=none;fillColor=none;align=center;verticalAlign=middle;whiteSpace=wrap;rounded=0;" parent="1" vertex="1">
          <mxGeometry x="670" y="550" width="40" height="30" as="geometry" />
        </mxCell>
        <mxCell id="gJM25PYip7lrtwRQAck6-7" value="监控组件 prometheus" style="shape=ext;double=1;rounded=1;whiteSpace=wrap;html=1;" parent="1" vertex="1">
          <mxGeometry x="200" y="546" width="440" height="30" as="geometry" />
        </mxCell>
        <mxCell id="gJM25PYip7lrtwRQAck6-8" value="存储单元组件 &lt;br&gt;hdfs/minio/tidb/es ..." style="shape=ext;double=1;rounded=1;whiteSpace=wrap;html=1;" parent="1" vertex="1">
          <mxGeometry x="431" y="503" width="210" height="40" as="geometry" />
        </mxCell>
        <mxCell id="gJM25PYip7lrtwRQAck6-10" value="数据接入与查询&lt;br&gt;ingestion" style="shape=ext;double=1;rounded=1;whiteSpace=wrap;html=1;" parent="1" vertex="1">
          <mxGeometry x="430" y="462" width="210" height="40" as="geometry" />
        </mxCell>
        <mxCell id="geDU7SRH2CKQkBY8LNWq-2" value="日志组件&lt;br&gt;ELK" style="shape=ext;double=1;rounded=1;whiteSpace=wrap;html=1;" vertex="1" parent="1">
          <mxGeometry x="200" y="503" width="220" height="40" as="geometry" />
        </mxCell>
        <mxCell id="geDU7SRH2CKQkBY8LNWq-6" value="外部数据源" style="shape=datastore;whiteSpace=wrap;html=1;" vertex="1" parent="1">
          <mxGeometry x="20" y="300" width="60" height="60" as="geometry" />
        </mxCell>
      </root>
    </mxGraphModel>
  </diagram>
</mxfile>
